<svg xmlns="http://www.w3.org/2000/svg" width="32" height="32"><path d="M0 15.52C0 6.6 6.987 0 16 0s16 6.6 16 15.52-6.987 15.52-16 15.52a17.47 17.47 0 01-4.627-.613 1.285 1.285 0 00-.862.07l.008-.003-3.187 1.4a1.28 1.28 0 01-1.8-1.131v-.002l-.093-2.853a1.293 1.293 0 00-.426-.906l-.001-.001C1.927 24.21-.003 20.193-.003 15.724l.001-.214v.011zm11.093-2.92L6.4 20.067c-.467.707.427 1.52 1.093 1l5.053-3.827a.94.94 0 011.16 0l3.733 2.8c1.12.84 2.72.533 3.467-.64l4.693-7.467c.467-.707-.427-1.507-1.093-1l-5.053 3.827a.921.921 0 01-1.147 0l-3.733-2.8a2.4 2.4 0 00-3.475.63l-.006.01z"/></svg>